<svg width="100" height="18" viewBox="0 0 100 18" fill="none" xmlns="http://www.w3.org/2000/svg">
<g clip-path="url(#clip0_1801_11002)">
<path d="M24.5247 5.22827L24.5421 6.59195V7.69276H28.3005C28.3935 8.04276 28.4414 8.4247 28.4414 8.8386C28.4414 9.25104 28.3935 9.63298 28.3005 9.98298H24.5421V14.79C24.1718 14.8597 23.7085 14.8945 23.1523 14.8945C22.5961 14.8945 22.1328 14.8597 21.7639 14.79V2.95548L21.8859 2.85092H29.3665C29.4362 3.14137 29.4725 3.50589 29.4725 3.94302C29.4725 4.38015 29.352 4.70401 29.1124 4.91313C28.8727 5.12371 28.4952 5.22827 27.9811 5.22827H24.5247Z" fill="#B7B8BE"/>
<path d="M36.5342 6.83729C37.3736 7.67669 37.7933 8.87626 37.7933 10.4389C37.7933 11.1374 37.7018 11.7735 37.5217 12.3443C37.3417 12.915 37.0788 13.4015 36.7346 13.8038C36.3919 14.2061 35.9693 14.5139 35.4682 14.7303C34.9672 14.9453 34.3892 15.0527 33.7371 15.0527C33.0851 15.0527 32.5114 14.9424 32.0162 14.7216C31.5195 14.4994 31.0998 14.1886 30.7571 13.7864C30.4129 13.3841 30.153 12.8976 29.9787 12.3268C29.8044 11.7561 29.7173 11.1258 29.7173 10.4389C29.7173 9.73891 29.8044 9.10717 29.9787 8.54224C30.153 7.97586 30.41 7.48935 30.7484 7.08272C31.0853 6.67463 31.505 6.35949 32.0075 6.13729C32.5071 5.91655 33.0851 5.80618 33.7371 5.80618C34.8917 5.80618 35.8226 6.15036 36.5342 6.83729ZM33.7459 7.85096C33.4874 7.85096 33.2797 7.91196 33.1214 8.03395C32.9631 8.15739 32.8367 8.32295 32.7423 8.53353C32.648 8.74265 32.5841 8.98518 32.5492 9.25821C32.5129 9.53268 32.4955 9.82604 32.4955 10.1412C32.4955 10.6306 32.5114 11.0532 32.5405 11.409C32.5695 11.7648 32.6276 12.0611 32.7162 12.3007C32.8048 12.5389 32.9268 12.7175 33.0851 12.8337C33.2448 12.9499 33.4525 13.0079 33.711 13.0079C34.2266 13.0079 34.5678 12.7843 34.7319 12.3356C34.8961 11.8868 34.9788 11.2478 34.9788 10.4215C34.9788 9.58206 34.8961 8.94452 34.7319 8.50594C34.5678 8.07026 34.2382 7.85096 33.7459 7.85096Z" fill="#B7B8BE"/>
<path d="M38.8413 7.32534C38.8994 7.09298 39.0098 6.83302 39.1739 6.54838C39.3365 6.26228 39.4992 6.05461 39.6633 5.92681C40.7351 6.00814 41.4815 6.53821 41.8998 7.51704C42.3427 6.4685 43.0717 5.94424 44.0854 5.94424C44.3875 5.94424 44.7723 5.99071 45.2385 6.08366C45.2385 6.44527 45.1775 6.87369 45.0555 7.36891C44.9335 7.86413 44.7665 8.28674 44.5574 8.63673C44.3585 8.56702 44.0622 8.50893 43.6657 8.46101C43.0834 8.46101 42.6056 8.75872 42.2323 9.3527V14.79C41.8475 14.8597 41.3958 14.8945 40.8774 14.8945C40.3589 14.8945 39.9015 14.8597 39.505 14.79V9.14357C39.505 8.26931 39.2842 7.66372 38.8413 7.32534Z" fill="#B7B8BE"/>
<path d="M52.0739 6.0506C52.1436 6.37446 52.1784 6.69686 52.1784 7.02071C52.1784 7.34457 52.1436 7.66116 52.0739 7.9734L49.9942 7.93854V11.9599C49.9942 12.5074 50.2498 12.7804 50.7625 12.7804H51.7413C51.8923 13.2044 51.9693 13.5922 51.9693 13.9436C51.9693 14.2965 51.9446 14.5492 51.8996 14.7017C51.037 14.8194 50.244 14.8789 49.5222 14.8789C48.054 14.8789 47.3192 14.0671 47.3192 12.442V7.95597L45.9555 7.9734C45.8742 7.6844 45.8335 7.37071 45.8335 7.02943C45.8335 6.68815 45.8742 6.36284 45.9555 6.0506L47.3192 6.08546V5.07178C47.3192 4.4778 47.4324 4.05519 47.6604 3.80395C47.887 3.55416 48.2689 3.42782 48.8048 3.42782H49.8708L49.9942 3.55126V6.08546L52.0739 6.0506Z" fill="#B7B8BE"/>
<path d="M60.2036 11.3117H55.658C55.6813 11.8302 55.8149 12.2339 56.0589 12.5229C56.3014 12.8104 56.7022 12.9542 57.2599 12.9542C57.5387 12.9542 57.8597 12.915 58.2256 12.8366C58.5916 12.7582 59.0128 12.6275 59.4891 12.4474C59.8711 12.8438 60.1092 13.3797 60.2036 14.0565C59.2698 14.7202 58.1283 15.0527 56.7763 15.0527C56.0429 15.0527 55.4271 14.9366 54.9319 14.7027C54.4367 14.4704 54.0344 14.1436 53.7265 13.7239C53.4172 13.3042 53.1979 12.809 53.0701 12.2382C52.9423 11.6675 52.8784 11.0445 52.8784 10.3677C52.8784 9.71567 52.9568 9.11153 53.1137 8.55822C53.272 8.0049 53.5102 7.52421 53.8311 7.11612C54.1521 6.70803 54.5587 6.38854 55.0539 6.15472C55.5506 5.92236 56.13 5.80473 56.7937 5.80473C57.3528 5.80473 57.8568 5.89912 58.3055 6.08501C58.7543 6.2709 59.1362 6.52795 59.4514 6.85471C59.7665 7.18002 60.0076 7.57068 60.1775 8.02524C60.346 8.47979 60.4302 8.97502 60.4302 9.5109C60.4302 10.2225 60.3547 10.8223 60.2036 11.3117ZM55.6406 9.42377H57.9294V9.23207C57.9294 8.80074 57.835 8.44494 57.6433 8.16465C57.453 7.88582 57.1669 7.74495 56.785 7.74495C56.4147 7.74495 56.1402 7.87711 55.9616 8.13851C55.7815 8.40137 55.6755 8.82979 55.6406 9.42377Z" fill="#B7B8BE"/>
<path d="M62.4926 2.81657C63.4366 2.79333 64.244 2.7759 64.9135 2.76428C65.5845 2.75267 66.1233 2.74686 66.5313 2.74686C67.8006 2.74686 68.7998 3.01262 69.5288 3.5427C70.2564 4.07277 70.6209 4.86861 70.6209 5.92731C70.6209 6.44141 70.4757 6.91921 70.1852 7.36215C69.8948 7.80509 69.523 8.12458 69.0699 8.32354C69.3603 8.41649 69.6377 8.56462 69.8991 8.76939C70.1605 8.97271 70.3842 9.21233 70.5701 9.48535C70.756 9.75983 70.9041 10.0561 71.0145 10.377C71.1248 10.698 71.18 11.0277 71.18 11.3646C71.18 12.5656 70.7981 13.4544 70.0356 14.0309C69.2718 14.6075 68.1913 14.8965 66.7927 14.8965C66.3614 14.8965 65.7907 14.8892 65.0805 14.8791C64.3689 14.866 63.5063 14.8486 62.4926 14.8253L62.3706 14.7033V2.93856L62.4926 2.81657ZM65.1502 4.72193V7.53642H66.3832C66.9394 7.53642 67.3301 7.39991 67.5552 7.12543C67.7803 6.8524 67.8936 6.51693 67.8936 6.12046C67.8936 5.724 67.7788 5.39433 67.5465 5.13293C67.3156 4.87007 66.9278 4.73936 66.3832 4.73936H65.6803C65.477 4.73936 65.2998 4.73355 65.1502 4.72193ZM66.5923 9.52892H65.1502V12.9374C65.4509 12.9258 65.7907 12.9258 66.1668 12.9374C66.543 12.9505 66.8944 12.92 67.2183 12.8502C67.5436 12.7805 67.8151 12.6121 68.0359 12.3434C68.2566 12.0762 68.3655 11.703 68.3655 11.2252C68.3655 10.7706 68.2247 10.3741 67.94 10.0358C67.6554 9.69884 67.2066 9.52892 66.5923 9.52892Z" fill="#B7B8BE"/>
<path d="M80.253 13.5322C80.1949 13.7776 80.0831 14.0391 79.9205 14.3193C79.7578 14.5982 79.5893 14.8029 79.4136 14.9307C78.5974 14.9075 77.9686 14.5982 77.5257 14.0042C76.7676 14.7042 75.9471 15.0527 75.0612 15.0527C74.6066 15.0527 74.2102 14.9801 73.8718 14.8349C73.5349 14.6897 73.2488 14.4936 73.0149 14.2496C72.7826 14.0042 72.6083 13.721 72.4921 13.4015C72.3745 13.0806 72.3164 12.7451 72.3164 12.3965C72.3164 11.8955 72.4064 11.4555 72.588 11.0764C72.7681 10.6974 73.0149 10.3823 73.3301 10.1325C73.6452 9.88123 74.0126 9.69243 74.4324 9.56463C74.8506 9.43538 75.2994 9.37148 75.7771 9.37148C76.0458 9.37148 76.2825 9.37439 76.4859 9.3802C76.6906 9.38601 76.8678 9.39472 77.0188 9.40634V9.07087C77.0188 8.32731 76.6398 7.95553 75.8817 7.95553C75.3938 7.95553 74.5369 8.14868 73.3127 8.53208C72.9627 8.12544 72.7419 7.48935 72.649 6.62671C72.9293 6.52214 73.24 6.42339 73.5842 6.33045C73.9284 6.2375 74.2799 6.15472 74.6415 6.08501C75.0031 6.01531 75.3589 5.96012 75.7074 5.91946C76.0574 5.87879 76.3726 5.85846 76.6514 5.85846C77.0595 5.85846 77.4531 5.91655 77.8321 6.03273C78.2097 6.15036 78.5423 6.32754 78.8284 6.56571C79.113 6.80534 79.341 7.11467 79.5095 7.49226C79.6779 7.8713 79.7636 8.32295 79.7636 8.84722V12.3965C79.7636 12.9324 79.9263 13.3115 80.253 13.5322ZM74.974 12.2208C74.974 12.7698 75.2877 13.0428 75.918 13.0428C76.2433 13.0428 76.6107 12.8743 77.0188 12.536V11.1374C76.785 11.1258 76.5904 11.1171 76.4336 11.1113C76.2767 11.1055 76.1562 11.1026 76.0749 11.1026C75.3415 11.1026 74.974 11.4758 74.974 12.2208Z" fill="#B7B8BE"/>
<path d="M89.3255 9.02238V12.6066C89.3255 13.3748 89.4649 13.9514 89.7452 14.3362C89.3023 14.7327 88.7722 14.9316 88.1535 14.9316C87.5479 14.9316 87.134 14.7908 86.9133 14.5119C86.6911 14.2317 86.5807 13.8061 86.5807 13.2354V9.5118C86.5807 9.11533 86.5284 8.82488 86.4239 8.63754C86.3193 8.45165 86.1146 8.3587 85.8125 8.3587C85.6368 8.3587 85.4392 8.40517 85.2171 8.49812C84.9963 8.59106 84.7683 8.7421 84.5359 8.95268V14.7908C84.337 14.8256 84.122 14.8518 83.8882 14.8692C83.6559 14.8866 83.4177 14.8953 83.1723 14.8953C82.9268 14.8953 82.6887 14.8866 82.4549 14.8692C82.2225 14.8518 82.0061 14.8256 81.8086 14.7908V6.06848L81.9306 5.94504H82.9631C83.6733 5.94504 84.1511 6.29504 84.3965 6.99503C85.2112 6.2718 86.0216 5.91019 86.8262 5.91019C87.6409 5.91019 88.2624 6.19338 88.6865 6.75831C89.1135 7.32324 89.3255 8.07841 89.3255 9.02238Z" fill="#B7B8BE"/>
<path d="M98.0655 11.3106L98.5027 12.5872C98.735 13.3554 99.0153 13.8521 99.3421 14.0729C98.8294 14.6436 98.2166 14.9297 97.5064 14.9297C97.1216 14.9297 96.8297 14.8382 96.6322 14.6581C96.4346 14.478 96.2589 14.16 96.1079 13.7054L95.5836 12.2023C95.4674 11.8407 95.3324 11.5982 95.1813 11.4762C95.0303 11.3542 94.8255 11.2932 94.5699 11.2932C94.3129 11.2932 94.1328 11.299 94.0268 11.3106V14.7888C93.6434 14.8585 93.2005 14.8948 92.6994 14.8948C92.1969 14.8948 91.7555 14.8585 91.3706 14.7888V2.04521L91.4926 1.92322H92.5411C93.0901 1.92322 93.4735 2.04521 93.6957 2.29065C93.9164 2.53608 94.0268 2.96014 94.0268 3.56718V9.05528H94.3071C94.5177 9.05528 94.6803 8.95072 94.7965 8.74014L95.7056 6.99307C96.0324 6.32939 96.545 5.99682 97.2436 5.99682C97.5819 5.99682 98.0888 6.00844 98.7655 6.03167L98.8701 6.17109L97.5238 8.77645C97.29 9.21939 96.9938 9.56212 96.6322 9.80756C97.3321 10.0632 97.8099 10.5656 98.0655 11.3106Z" fill="#B7B8BE"/>
<path d="M17.0341 7.96172C16.947 7.78019 16.7684 7.66691 16.568 7.66691H15.1535C15.0257 7.66691 14.9037 7.71484 14.8078 7.80197C13.9452 8.5891 12.9475 8.95071 11.7857 8.8781C9.74669 8.74739 8.22471 7.21381 8.2465 5.31134C8.26247 3.88667 9.43445 2.72777 10.8896 2.72777C11.4749 2.73503 12.0674 3.01096 12.4363 3.44664C12.5045 3.52796 12.6018 3.66012 12.6672 3.80389C12.7006 3.91572 12.6977 4.02754 12.6599 4.1321C12.5684 4.38189 12.2867 4.52712 12.0253 4.45305C12.0224 4.4516 12.018 4.45015 12.0151 4.4487C11.8496 4.38915 11.6782 4.35866 11.5039 4.35866C10.8809 4.35866 10.3174 4.75077 10.1025 5.33748C9.89046 5.91984 10.0633 6.57045 10.5338 6.97418C10.5527 7.00032 10.5774 7.02065 10.6064 7.03663L10.6384 7.05841C10.6442 7.06277 10.6485 7.06567 10.6529 7.07003C10.6703 7.08891 10.6907 7.10489 10.7139 7.11796C11.4662 7.53621 12.3666 7.5638 13.1305 7.19057C14.0163 6.75779 14.6437 5.86465 14.8078 4.80305C14.9559 3.84455 14.6757 2.88751 14.0149 2.1091C13.2583 1.21451 12.0979 0.672815 10.9129 0.659744L10.8591 0.658293C8.30749 0.658293 6.20752 2.73503 6.17702 5.28665C6.17122 5.79349 6.23802 6.28581 6.36146 6.75634C6.27142 6.74618 6.18138 6.73601 6.09134 6.72875C4.00734 6.59514 2.15571 7.44471 0.773156 9.15838C0.646809 9.31523 0.62212 9.52871 0.709256 9.71024C0.796392 9.89323 0.975021 10.0051 1.17689 10.0051H2.58994C2.71919 10.0051 2.84118 9.95713 2.93557 9.86999C3.79822 9.08287 4.80028 8.7169 5.95773 8.79387C7.99816 8.92602 9.51868 10.4596 9.4969 12.3606C9.48092 13.7853 8.30895 14.9442 6.85523 14.9442C6.26997 14.9369 5.67599 14.6625 5.30712 14.2253C5.23886 14.1455 5.14156 14.0118 5.07766 13.8681C5.04426 13.7577 5.04716 13.6444 5.08347 13.5399C5.17641 13.2901 5.46251 13.1448 5.71811 13.2189C5.72247 13.2204 5.72537 13.2218 5.72827 13.2233C5.89383 13.2828 6.06665 13.3148 6.24092 13.3148C6.86394 13.3148 7.42597 12.9212 7.6409 12.3359C7.85293 11.7536 7.68012 11.1015 7.20958 10.6978C7.19216 10.6731 7.16747 10.6528 7.14133 10.6368L7.10502 10.615C7.10066 10.6106 7.09485 10.6063 7.0905 10.6019C7.07307 10.5831 7.05274 10.5671 7.0295 10.5555C6.27578 10.1358 5.37683 10.1082 4.61294 10.4814C3.72706 10.9142 3.09968 11.8073 2.93557 12.8689C2.78744 13.8274 3.06918 14.7844 3.72851 15.5629C4.48659 16.4575 5.6455 16.9991 6.83054 17.0137H6.88573C9.43735 17.0137 11.5373 14.9369 11.5664 12.3853C11.5722 11.8785 11.5054 11.3862 11.3834 10.9156C11.4734 10.9258 11.562 10.9374 11.6535 10.9432C11.7929 10.9519 11.9323 10.9563 12.0703 10.9563C13.9873 10.9563 15.6821 10.1125 16.9702 8.51503C17.0966 8.35674 17.1213 8.1447 17.0341 7.96172Z" fill="#B7B8BE"/>
</g>
<defs>
<clipPath id="clip0_1801_11002">
<rect width="100" height="17.6712" fill="white"/>
</clipPath>
</defs>
</svg>