<svg width="116" height="20" viewBox="0 0 116 20" fill="none" xmlns="http://www.w3.org/2000/svg">
<path d="M3.7946 6.12565L8.32479 2.67451L12.855 6.12565H16.3024L8.32479 0L0.347168 6.12565H3.7946Z" fill="url(#paint0_linear_1801_11051)"/>
<path d="M14.2155 3.21391V0H11.6064V1.21158L14.2155 3.21391Z" fill="url(#paint1_linear_1801_11051)"/>
<path d="M4.04394 7.34719L2.05132 7.34185C1.19875 7.34185 0.915771 7.90669 0.915771 8.31465C0.915771 9.03637 1.48294 9.45999 2.58596 9.40038C2.98953 11.4752 3.39442 13.3122 3.79614 15.3908H12.8907C13.4307 12.6269 13.9267 10.1271 14.4629 7.36132C12.6489 7.3418 10.876 7.3418 9.4969 7.3418H9.44068C8.58805 7.3418 8.30555 7.97074 8.30386 8.33025C8.30217 8.68982 8.58805 9.40884 9.44068 9.40884H12.212C11.9449 10.7889 11.6758 12.1681 11.4049 13.5463H5.24043C4.84066 11.4846 4.44185 9.41825 4.04394 7.34719Z" fill="url(#paint2_linear_1801_11051)"/>
<path d="M4.93443 18.0738C5.56232 18.0738 6.07125 17.568 6.07125 16.9441C6.07125 16.3202 5.56232 15.8145 4.93443 15.8145C4.30659 15.8145 3.79761 16.3202 3.79761 16.9441C3.79761 17.568 4.30659 18.0738 4.93443 18.0738Z" fill="url(#paint3_linear_1801_11051)"/>
<path d="M11.7149 18.0738C12.3428 18.0738 12.8518 17.568 12.8518 16.9441C12.8518 16.3202 12.3428 15.8145 11.7149 15.8145C11.0871 15.8145 10.5781 16.3202 10.5781 16.9441C10.5781 17.568 11.0871 18.0738 11.7149 18.0738Z" fill="url(#paint4_linear_1801_11051)"/>
<path d="M20.7649 15.3748V2.97852H23.0341V8.23387H28.7511V2.97852H31.0028V15.3748H28.7511V10.1719H23.0341V15.3748H20.7649ZM32.0242 12.913C32.0242 12.2844 32.1943 11.749 32.5344 11.3067C32.8862 10.8644 33.3435 10.5443 33.9065 10.3465C34.4811 10.1369 35.0322 9.99143 35.56 9.90998C36.0995 9.82847 36.6623 9.78775 37.2487 9.78775H37.6357V9.66551C37.6357 8.61797 37.0728 8.09418 35.947 8.09418C35.1261 8.09418 34.2934 8.37932 33.4491 8.94966L32.6223 7.36088C33.0093 7.05823 33.5312 6.80217 34.1879 6.59266C34.8446 6.37152 35.4955 6.26092 36.1405 6.26092C37.3132 6.26092 38.2279 6.57521 38.8847 7.20373C39.5414 7.82062 39.8697 8.68779 39.8697 9.8052V15.3748H37.794V14.624L37.8468 13.978H37.8116C37.5301 14.4553 37.1373 14.8452 36.633 15.1478C36.1288 15.4388 35.5776 15.5843 34.9795 15.5843C34.1469 15.5843 33.4432 15.3399 32.8686 14.851C32.3057 14.3505 32.0242 13.7045 32.0242 12.913ZM34.2407 12.721C34.2407 13.0352 34.358 13.3088 34.5925 13.5415C34.8388 13.7743 35.173 13.8907 35.5952 13.8907C36.1932 13.8907 36.6858 13.6463 37.0728 13.1574C37.4598 12.6685 37.6533 12.1332 37.6533 11.5511V11.3067H37.2663C35.2492 11.3067 34.2407 11.7781 34.2407 12.721ZM41.279 12.5987V2.97852H43.4954V12.267C43.4954 12.7326 43.5658 13.0526 43.7065 13.2272C43.859 13.4018 44.0935 13.4892 44.4101 13.4892C44.5508 13.4892 44.6622 13.4833 44.7443 13.4717V15.4097C44.4277 15.4446 44.1932 15.4621 44.0407 15.4621C43.6772 15.4621 43.3547 15.433 43.0732 15.3748C42.7917 15.3049 42.5044 15.1827 42.2112 15.0081C41.9181 14.8219 41.6894 14.5251 41.5252 14.1177C41.361 13.7103 41.279 13.204 41.279 12.5987ZM45.5194 16.8065C45.8478 17.0509 46.1761 17.1731 46.5045 17.1731C47.2199 17.1731 47.742 16.789 48.0699 16.0208L48.4042 15.2351L44.6223 6.47043H47.1379L49.0198 11.6035L49.3541 12.8082H49.3896C49.4948 12.3427 49.5948 11.9527 49.6884 11.6385L51.4476 6.47043H53.8748L49.882 16.7192C49.589 17.499 49.1489 18.081 48.5628 18.4651C47.9879 18.8492 47.349 19.0413 46.6452 19.0413C46.3286 19.0413 46.0119 18.9947 45.6953 18.9016C45.3904 18.8085 45.1617 18.7154 45.0093 18.6222L44.7806 18.4651L45.5194 16.8065ZM54.454 15.3748V2.97852H56.6882V9.61315H57.7963L59.9601 6.47043H62.4403L59.6084 10.4512V10.4861L62.792 15.3748H60.2241L57.8492 11.4813H56.6882V15.3748H54.454Z" fill="url(#paint5_linear_1801_11051)"/>
<path d="M65.0046 15.3519L66.0218 2.97852H68.4236L70.8784 9.09549L71.4919 10.908H71.5268C71.749 10.1876 71.9537 9.58347 72.1404 9.09549L74.5951 2.97852H76.997L78.0141 15.3519H75.7524L75.2441 8.43327C75.2203 8.18928 75.2087 7.91043 75.2087 7.59678C75.2087 7.27143 75.2145 7.01004 75.2261 6.81254V6.51629H75.1912C74.9225 7.31793 74.6946 7.95692 74.5073 8.43327L72.4911 13.2258H70.5277L68.5114 8.43327L67.8275 6.49883H67.7926C67.8275 7.2424 67.8217 7.88721 67.7752 8.43327L67.2663 15.3519H65.0046ZM78.6864 12.8947C78.6864 12.2672 78.8561 11.7328 79.1947 11.2913C79.5453 10.8498 80.0013 10.5304 80.5625 10.3329C81.1353 10.1237 81.6843 9.97848 82.2106 9.89718C82.748 9.81583 83.3092 9.77516 83.8936 9.77516H84.2792V9.65319C84.2792 8.60755 83.7186 8.08471 82.5962 8.08471C81.7779 8.08471 80.948 8.36938 80.1065 8.93866L79.2825 7.35278C79.668 7.05071 80.1885 6.79508 80.8428 6.586C81.4976 6.36523 82.1461 6.25484 82.7892 6.25484C83.9582 6.25484 84.8695 6.56855 85.5243 7.19596C86.1786 7.81168 86.506 8.67727 86.506 9.79261V15.3519H84.4374V14.6025L84.4897 13.9577H84.4548C84.174 14.434 83.7826 14.8233 83.2801 15.1253C82.7776 15.4158 82.228 15.561 81.6319 15.561C80.8021 15.561 80.1007 15.317 79.5279 14.8291C78.9672 14.3295 78.6864 13.6847 78.6864 12.8947ZM80.8957 12.703C80.8957 13.0166 81.0126 13.2897 81.2464 13.522C81.4918 13.7544 81.825 13.8706 82.2455 13.8706C82.8416 13.8706 83.3324 13.6266 83.7186 13.1386C84.1041 12.6507 84.2972 12.1162 84.2972 11.5353V11.2913H83.9111C81.9006 11.2913 80.8957 11.7619 80.8957 12.703ZM87.3845 15.3519V6.46398H89.5235V8.03245L89.4886 8.64241H89.5235C89.734 7.99178 90.0963 7.44571 90.6105 7.00422C91.1251 6.56273 91.7096 6.34201 92.3638 6.34201C92.4575 6.34201 92.5976 6.35364 92.7849 6.37686V8.55524C92.668 8.53202 92.4866 8.52039 92.2411 8.52039C91.3763 8.52039 90.7215 8.83409 90.2778 9.4615C89.8335 10.0889 89.6113 10.8556 89.6113 11.7619V15.3519H87.3845ZM93.4592 15.3519V2.97852H95.686V9.60088H96.7904L98.9474 6.46398H101.419L98.5967 10.4374V10.4723L101.77 15.3519H99.2103L96.8433 11.4656H95.686V15.3519H93.4592ZM101.319 10.908C101.319 9.53698 101.74 8.42164 102.582 7.56192C103.435 6.69057 104.534 6.25484 105.878 6.25484C107.117 6.25484 108.087 6.65571 108.788 7.45735C109.489 8.24735 109.84 9.25237 109.84 10.4723C109.84 10.6698 109.817 10.9544 109.77 11.3262H103.616C103.686 12.0697 103.973 12.6507 104.475 13.0689C104.978 13.4756 105.585 13.6789 106.298 13.6789C107.187 13.6789 108.04 13.3535 108.858 12.703L109.735 14.2888C109.291 14.6839 108.741 14.9976 108.087 15.2299C107.444 15.4506 106.796 15.561 106.141 15.561C104.703 15.561 103.54 15.1137 102.652 14.2191C101.763 13.3129 101.319 12.2092 101.319 10.908ZM103.669 9.81001H107.614C107.602 9.22909 107.427 8.7702 107.088 8.43327C106.76 8.09635 106.34 7.92788 105.825 7.92788C105.264 7.92788 104.791 8.10217 104.405 8.45067C104.019 8.7876 103.774 9.24073 103.669 9.81001ZM111.252 12.093V8.34616H110.096V6.586H111.305V4.0416H113.479V6.586H115.513V8.34616H113.479V11.8142C113.479 12.4532 113.66 12.8947 114.022 13.1386C114.396 13.371 114.806 13.4872 115.25 13.4872C115.402 13.4872 115.536 13.4756 115.653 13.4523V15.3867C115.302 15.4216 115.074 15.439 114.969 15.439C114.665 15.439 114.373 15.4158 114.093 15.3693C113.812 15.3345 113.491 15.2473 113.128 15.1079C112.766 14.9685 112.45 14.7884 112.182 14.5676C111.925 14.3353 111.702 14.01 111.515 13.5917C111.34 13.1619 111.252 12.6623 111.252 12.093Z" fill="url(#paint6_linear_1801_11051)"/>
<defs>
<linearGradient id="paint0_linear_1801_11051" x1="6.01138" y1="0.0282395" x2="8.94586" y2="7.86063" gradientUnits="userSpaceOnUse">
<stop stop-color="#FECC2E"/>
<stop offset="0.63" stop-color="#F49739"/>
<stop offset="1" stop-color="#F7A934"/>
</linearGradient>
<linearGradient id="paint1_linear_1801_11051" x1="12.388" y1="-0.262649" x2="15.3077" y2="8.34258" gradientUnits="userSpaceOnUse">
<stop stop-color="#36AC57"/>
<stop offset="0.25" stop-color="#21975A"/>
<stop offset="1" stop-color="#067C5F"/>
</linearGradient>
<linearGradient id="paint2_linear_1801_11051" x1="2.5172" y1="9.03637" x2="12.3845" y2="22.2286" gradientUnits="userSpaceOnUse">
<stop stop-color="#4EB76A"/>
<stop offset="0.300679" stop-color="#1A925A"/>
<stop offset="1" stop-color="#01795E"/>
</linearGradient>
<linearGradient id="paint3_linear_1801_11051" x1="2.80291" y1="15.2496" x2="5.76918" y2="18.0925" gradientUnits="userSpaceOnUse">
<stop stop-color="#34AC55"/>
<stop offset="0.182292" stop-color="#18905A"/>
<stop offset="1" stop-color="#037B5E"/>
</linearGradient>
<linearGradient id="paint4_linear_1801_11051" x1="9.58337" y1="15.2496" x2="12.5496" y2="18.0925" gradientUnits="userSpaceOnUse">
<stop stop-color="#34AC55"/>
<stop offset="0.182292" stop-color="#18905A"/>
<stop offset="1" stop-color="#037B5E"/>
</linearGradient>
<linearGradient id="paint5_linear_1801_11051" x1="41.2406" y1="0.340219" x2="41.2406" y2="21.1946" gradientUnits="userSpaceOnUse">
<stop stop-color="#35AD54"/>
<stop offset="0.309893" stop-color="#1B9359"/>
<stop offset="1" stop-color="#00785E"/>
</linearGradient>
<linearGradient id="paint6_linear_1801_11051" x1="86.8604" y1="-1.59127" x2="89.0258" y2="21.1635" gradientUnits="userSpaceOnUse">
<stop stop-color="#FFCC2A"/>
<stop offset="0.631373" stop-color="#F89734"/>
<stop offset="1" stop-color="#FAA932"/>
</linearGradient>
</defs>
</svg>