<svg width="93" height="22" viewBox="0 0 93 22" fill="none" xmlns="http://www.w3.org/2000/svg">
<path d="M45.5955 5.0427H42.3172L37.4948 9.82949V0.469706H34.8936V17.0869H37.4948V12.7752L39.0865 11.2786L42.7567 17.0869H46.0113L40.9632 9.44939L45.5955 5.0427ZM48.173 8.7486H50.703C50.9168 7.18072 51.6651 6.5987 53.3874 6.5987C55.0741 6.5987 55.8699 7.18072 55.8699 8.41602C55.8699 8.8555 55.8224 9.14057 55.7036 9.2831C55.4423 9.62756 54.9078 9.74634 53.0549 9.9839C50.6436 10.2927 47.6504 10.5897 47.6504 13.7848C47.6504 16.006 49.2183 17.3838 51.7245 17.3838C53.3162 17.3838 54.8603 16.9919 55.9531 15.9347C56.1431 16.98 56.8914 17.3838 57.9129 17.3838C58.4237 17.3838 58.8038 17.3363 59.6471 17.1225V15.2577C59.3145 15.3052 59.2314 15.3052 59.0413 15.3052C58.5543 15.3052 58.4118 15.1152 58.4118 14.4144V8.29724C58.4118 5.70786 56.3094 4.65072 53.4587 4.65072C50.513 4.67448 48.4819 5.791 48.173 8.7486ZM55.8462 11.041V12.4664C55.8462 13.1909 55.8699 13.9868 55.3117 14.545C54.7059 15.1508 53.6725 15.5071 52.5797 15.5071C51.2019 15.5071 50.4061 14.8538 50.4061 13.7136C50.4061 12.1219 51.8077 11.8962 53.0549 11.7062C53.9932 11.5518 54.9791 11.528 55.8462 11.041ZM71.7031 8.54667C71.7031 5.81476 69.4107 4.69824 66.655 4.69824C63.5668 4.69824 61.7138 6.05232 61.7138 8.34475C61.7138 10.9341 63.8875 11.2905 66.655 11.9675C68.1754 12.3357 69.5295 12.5495 69.5295 13.7611C69.5295 14.8301 68.4961 15.5071 66.9282 15.5071C65.2653 15.5071 64.1488 14.8301 64.0063 13.2384H61.4525C61.5951 15.9941 63.4599 17.4432 66.8807 17.4432C70.1115 17.4432 72.1426 15.8991 72.1426 13.476C72.1426 10.8154 69.5651 10.2808 67.4627 9.79385C65.5266 9.35437 64.3745 9.25935 64.3745 8.0478C64.3745 7.15696 65.1703 6.64621 66.5244 6.64621C67.9497 6.64621 68.9594 7.08569 69.1494 8.55855L71.7031 8.54667ZM77.6777 5.0427H75.1715V21.5411H77.8203V15.4952C78.7824 16.8256 80.1127 17.3838 81.7519 17.3838C85.0064 17.3838 87.1088 14.9132 87.1088 11.1004C87.1088 7.20447 84.9589 4.68636 81.6093 4.68636C80.0414 4.68636 78.5211 5.29213 77.6777 6.64621V5.0427ZM81.0629 6.83626C83.1178 6.83626 84.4125 8.49916 84.4125 11.1123C84.4125 13.6779 83.1534 15.2696 81.1104 15.2696C78.9843 15.2696 77.7134 13.6779 77.7134 11.0648C77.7252 8.4279 78.9605 6.83626 81.0629 6.83626ZM93.0002 0.398438H90.3396V3.01157H93.0002V0.398438ZM93.0002 5.0427H90.3396V17.0869H93.0002V5.0427Z" fill="#1C1B17"/>
<path d="M4.74075 19.9532C5.8889 15.191 4.52594 15.0281 4.52594 12.7173C4.52594 11.9471 5.13335 10.103 5.22223 9.20682C5.42964 7.1479 4.91853 7.69596 6.42224 6.17029L6.51113 4.05212C7.26668 3.32632 7.64446 2.67457 8.57039 2.90416C9.13335 4.57796 8.06669 4.05212 7.96298 6.00735C8.59261 6.84425 9.01484 6.92572 9.48891 7.97739C10.0889 9.3105 9.65928 9.29569 10.7926 10.414C12.4593 10.6066 13.4667 10.614 14.6593 9.41419C14.7852 8.13292 14.0445 8.24401 14.8 7.06643C15.3186 6.25916 15.8297 5.8222 16.8 6.14807C17.1186 7.40712 15.6889 7.66633 16.1334 9.0661C18.0519 9.25866 18.4963 6.61466 19.963 6.48135C19.963 9.3031 17.0149 9.6734 16.9482 11.9693C16.9037 13.4061 18.1778 17.361 19.4667 18.2053C20.6 16.4649 21.8223 14.5689 21.963 12.4655C22.9482 -1.88763 3.95556 -4.50201 0.348149 8.06627C0.162963 8.7106 0.051852 9.36234 0 10.0141V11.6805C0.318519 15.8131 2.86667 19.4421 4.74075 19.9532Z" fill="#EF4635"/>
<path d="M10.2962 21.8791C15.4295 22.4864 14.8888 20.9014 13.8739 15.058C13.4739 12.7547 13.0073 11.54 10.2739 11.7548C8.57023 13.7767 9.42949 17.7168 9.48875 19.4424C9.53319 20.8052 9.30356 20.894 10.2962 21.8791ZM16.1999 20.4719C17.0591 20.3682 17.2073 20.1904 17.9036 19.635C18.0147 18.4574 17.2073 16.5614 15.948 16.1837C15.3554 17.3243 15.5258 19.3536 16.1999 20.4719ZM7.74059 21.4495C7.74059 20.0127 7.91837 17.0428 7.17763 16.0208C6.19244 16.3096 6.49615 17.1539 6.48874 18.9536C6.48133 20.2719 6.23689 21.3162 7.74059 21.4495Z" fill="#EF4635"/>
</svg>