<svg width="100" height="22" viewBox="0 0 100 22" fill="none" xmlns="http://www.w3.org/2000/svg">
<g clip-path="url(#clip0_1801_10994)">
<path fill-rule="evenodd" clip-rule="evenodd" d="M12.0214 0.0602151C9.77325 -0.176598 7.50694 0.288707 5.53397 1.39217C3.56101 2.49564 1.97824 4.1831 1.00322 6.2226C0.028199 8.2621 -0.291203 10.5535 0.088913 12.7819C0.469029 15.0103 1.53 17.0663 3.126 18.6672C4.722 20.2682 6.77468 21.3355 9.00189 21.7225C11.2291 22.1095 13.5215 21.7972 15.564 20.8285C17.6065 19.8598 19.2989 18.2823 20.4084 16.3127C21.518 14.3432 21.9903 12.0783 21.7605 9.82944C21.5075 7.32968 20.4009 4.99342 18.6271 3.21405C16.8532 1.43468 14.5204 0.320888 12.0214 0.0602151ZM11.6668 16.7326C10.4577 16.8948 9.22816 16.674 8.15097 16.1014C7.07379 15.5287 6.20313 14.6329 5.66136 13.5398C5.11959 12.4468 4.93395 11.2114 5.13052 10.0074C5.32709 8.8034 5.896 7.69125 6.75728 6.82727C7.61857 5.96328 8.72893 5.3909 9.93232 5.19056C11.1357 4.99022 12.3716 5.172 13.4664 5.71035C14.5611 6.2487 15.4596 7.11655 16.0357 8.19193C16.6117 9.26732 16.8363 10.4962 16.6779 11.7058C16.5116 12.9781 15.9306 14.1601 15.0247 15.0689C14.1188 15.9776 12.9386 16.5623 11.6668 16.7326ZM27.6129 0.493094C27.2334 0.494003 26.8589 0.579506 26.5166 0.743383C26.1743 0.90726 25.8728 1.14539 25.6341 1.44044C25.3954 1.73549 25.2255 2.08004 25.1368 2.44902C25.048 2.818 25.0426 3.20213 25.121 3.57346C25.3611 4.77643 26.4847 5.59838 27.7088 5.59838H34.8121L23.7577 20.2274C23.6759 20.3354 23.6259 20.4641 23.6131 20.5989C23.6004 20.7338 23.6254 20.8695 23.6855 20.9909C23.7456 21.1123 23.8383 21.2146 23.9532 21.2863C24.0682 21.3579 24.2008 21.3962 24.3362 21.3967H41.6762C42.8994 21.3967 44.0239 20.575 44.264 19.3718C44.3424 19.0005 44.337 18.6164 44.2483 18.2475C44.1596 17.8786 43.9898 17.534 43.7513 17.239C43.5127 16.9439 43.2114 16.7057 42.8692 16.5417C42.527 16.3777 42.1525 16.2921 41.7731 16.291H33.1182L44.1642 1.67333C44.2467 1.56429 44.2973 1.43439 44.3101 1.29822C44.3229 1.16206 44.2976 1.025 44.2369 0.902436C44.1762 0.779872 44.0825 0.676647 43.9664 0.604342C43.8503 0.532038 43.7164 0.493514 43.5796 0.493094H27.6129ZM96.9022 0.551982C96.3282 0.68849 95.8179 1.01683 95.4557 1.48271C95.0936 1.9486 94.9013 2.52412 94.9106 3.11413V11.6143L81.1372 0.653642C81.0292 0.567903 80.8992 0.514397 80.7621 0.49928C80.625 0.484162 80.4865 0.508047 80.3624 0.568187C80.2382 0.628327 80.1336 0.722278 80.0606 0.839233C79.9875 0.956187 79.9489 1.09139 79.9493 1.2293V18.7802C79.9399 19.3702 80.1322 19.9458 80.4944 20.4117C80.8565 20.8776 81.3669 21.2059 81.941 21.3424C82.3137 21.4244 82.7002 21.4217 83.0718 21.3344C83.4434 21.2472 83.7906 21.0776 84.088 20.8383C84.3853 20.5989 84.6251 20.2959 84.7897 19.9515C84.9543 19.6071 85.0394 19.2301 85.0389 18.8484V10.2747L98.8125 21.2355C98.9205 21.3212 99.0504 21.3747 99.1875 21.3898C99.3245 21.4049 99.463 21.381 99.587 21.3209C99.7111 21.2608 99.8156 21.1669 99.8887 21.05C99.9617 20.9331 100 20.7979 100 20.6601V3.04512C100 2.66351 99.9151 2.28667 99.7505 1.9424C99.5859 1.59812 99.3461 1.29518 99.0488 1.05592C98.7515 0.816653 98.4043 0.647164 98.0328 0.559946C97.6613 0.472729 97.2749 0.470007 96.9022 0.551982ZM61.04 5.10971C66.8658 5.10971 71.2188 8.18842 71.2188 10.9423C71.2188 13.6962 66.8658 16.7749 61.04 16.7749C55.2142 16.7749 50.8613 13.6962 50.8613 10.9423C50.8613 8.18842 55.2142 5.10971 61.04 5.10971ZM61.04 0.00463304C52.6075 0.00463304 45.7717 4.90164 45.7717 10.9423C45.7717 16.983 52.6075 21.88 61.04 21.88C69.4726 21.88 76.3082 16.983 76.3082 10.9423C76.3082 4.90164 69.4724 0.00463304 61.04 0.00463304Z" fill="#B7B8BE"/>
</g>
<defs>
<clipPath id="clip0_1801_10994">
<rect width="100" height="21.8894" fill="white"/>
</clipPath>
</defs>
</svg>