<svg width="80" height="9" viewBox="0 0 80 9" fill="none" xmlns="http://www.w3.org/2000/svg">
<path d="M2.83376 8.23367L0.42334 0.134766H2.01943L3.87611 6.3533L5.86308 0.134766H7.34516L9.33213 6.38291L11.1888 0.134766H12.7686L10.3582 8.23367H8.5178L6.57969 2.1928L4.65787 8.23367H2.83376Z" fill="#BE11A5"/>
<path d="M13.8765 0.134766H15.3911V8.23367H13.8765V0.134766Z" fill="#BE11A5"/>
<path d="M18.5993 6.96117H22.2638V8.23449H17.1172V0.150391H18.5993V6.96117Z" fill="#BE11A5"/>
<path d="M26.9216 0.149874C28.0779 0.120262 29.2017 0.549639 29.9998 1.31955C31.6447 2.93341 31.6447 5.45044 29.9998 7.0643C29.2017 7.83421 28.0779 8.26359 26.9216 8.23397H23.3711V0.149874H26.9216ZM26.9216 6.96065C27.7685 6.96065 28.4688 6.69415 28.99 6.17593C29.5437 5.64292 29.8369 4.91742 29.8043 4.19192C29.8369 3.45162 29.5437 2.74093 28.99 2.20792C28.4525 1.6897 27.7033 1.39358 26.9216 1.42319H24.8532V6.96065H26.9216Z" fill="#BE11A5"/>
<path d="M39.1861 5.9254C39.2024 6.54726 38.9092 7.1543 38.4043 7.56887C37.8831 8.01305 37.1991 8.24995 36.4825 8.23515H32.6226V0.151046H36.2056C36.8897 0.13624 37.5574 0.373137 38.0786 0.787706C38.5835 1.18747 38.8603 1.77971 38.8441 2.38676C38.8766 3.03822 38.5183 3.66008 37.932 4.03023C38.7138 4.38558 39.2024 5.12588 39.1861 5.9254ZM34.1046 1.39475V3.52682H36.2056C36.8571 3.52682 37.3783 3.05303 37.3783 2.46079C37.3783 1.86855 36.8571 1.39475 36.2056 1.39475H34.1046ZM36.4825 6.97663C37.1665 6.94702 37.704 6.42881 37.6714 5.80696C37.6551 5.21471 37.1177 4.74092 36.4825 4.72611H34.1046V6.99144L36.4825 6.97663Z" fill="#BE11A5"/>
<path d="M42.0846 6.96117H46.0748V8.23449H40.6025V0.150391H46.0097V1.42371H42.0846V3.52617H45.7003V4.78468H42.0846V6.96117Z" fill="#BE11A5"/>
<path d="M52.5406 8.23227L50.6188 5.28587H48.8761V8.23227H47.394V0.133369H51.0097C51.7752 0.118563 52.5243 0.399877 53.0618 0.903283C53.6155 1.37708 53.925 2.04335 53.9087 2.73923C53.8924 3.77565 53.1921 4.70843 52.1172 5.07859L54.1693 8.23227H52.5406ZM48.8761 1.39188V4.10139H50.9934C51.8077 4.07178 52.4429 3.43512 52.4103 2.68001C52.3778 1.98412 51.7589 1.42149 50.9934 1.39188H48.8761Z" fill="#BE11A5"/>
<path d="M60.4399 8.23227L58.5343 5.28587H56.7917V8.23227H55.3096V0.133369H58.9252C59.6907 0.118563 60.4399 0.399877 60.9773 0.903283C61.5311 1.37708 61.8405 2.04335 61.8242 2.73923C61.8079 3.77565 61.1076 4.70843 60.0327 5.07859L62.0848 8.23227H60.4399ZM56.7917 1.39188V4.10139H58.9089C59.7395 4.05697 60.3584 3.42031 60.3096 2.6652C60.2607 1.98412 59.6581 1.42149 58.9089 1.39188H56.7917Z" fill="#BE11A5"/>
<path d="M63.1597 0.134766H64.6417V8.23367H63.1597V0.134766Z" fill="#BE11A5"/>
<path d="M67.8664 6.96117H71.8566V8.23449H66.3843V0.150391H71.7914V1.42371H67.8664V3.52617H71.482V4.78468H67.8664V6.96117Z" fill="#BE11A5"/>
<path d="M72.8989 6.39818L74.1856 5.73191C74.5439 6.64988 75.2931 7.09406 76.4168 7.09406C77.5406 7.09406 78.0944 6.66469 78.0944 6.02803C78.1107 5.73191 77.9315 5.43579 77.6383 5.28773C77.3452 5.11005 76.8077 4.91757 76.0422 4.71029C75.1791 4.47339 74.7556 4.32533 74.153 3.96999C73.5504 3.61464 73.2735 3.06682 73.2735 2.34132C73.2409 1.68986 73.5667 1.0532 74.1204 0.638629C74.6905 0.209254 75.4234 -0.0128373 76.1725 0.00196876C77.5243 -0.0424494 78.7621 0.668241 79.3159 1.77869L78.0781 2.41535C77.7035 1.67505 77.0683 1.2901 76.1888 1.2901C75.3094 1.2901 74.7719 1.67505 74.7719 2.2969C74.7719 2.91876 75.2116 3.17046 76.596 3.55542C76.938 3.65906 77.1823 3.73309 77.3452 3.79232C77.508 3.85154 77.7361 3.92557 78.0129 4.02921C78.2409 4.10324 78.469 4.22169 78.6644 4.35495C79.1367 4.69548 79.6579 5.24331 79.5927 6.01322C79.6253 6.6943 79.2996 7.33096 78.7133 7.76033C78.1269 8.18971 77.3615 8.397 76.4006 8.397C74.6253 8.38219 73.355 7.62708 72.8989 6.39818Z" fill="#BE11A5"/>
</svg>