<svg width="24" height="24" viewBox="0 0 24 24" fill="none" xmlns="http://www.w3.org/2000/svg">
<path d="M21.6316 16.4508H7.67461L8.37539 15.0234L20.0191 15.0023C20.4129 15.0023 20.7504 14.7211 20.8207 14.332L22.4332 5.30625C22.4754 5.06953 22.4121 4.82578 22.2574 4.64062C22.181 4.5495 22.0856 4.4761 21.978 4.42551C21.8703 4.37492 21.7529 4.34835 21.634 4.34766L6.82148 4.29844L6.69492 3.70312C6.61523 3.32344 6.27305 3.04688 5.88398 3.04688H2.26289C2.04347 3.04688 1.83303 3.13404 1.67787 3.2892C1.52271 3.44436 1.43555 3.65479 1.43555 3.87422C1.43555 4.09364 1.52271 4.30408 1.67787 4.45924C1.83303 4.6144 2.04347 4.70156 2.26289 4.70156H5.21367L5.7668 7.33125L7.12852 13.9242L5.37539 16.7859C5.28435 16.9088 5.22951 17.0547 5.21709 17.2071C5.20466 17.3596 5.23514 17.5124 5.30508 17.6484C5.4457 17.9273 5.7293 18.1031 6.04336 18.1031H7.51523C7.20145 18.5199 7.03196 19.0275 7.03242 19.5492C7.03242 20.8758 8.11055 21.9539 9.43711 21.9539C10.7637 21.9539 11.8418 20.8758 11.8418 19.5492C11.8418 19.0266 11.6684 18.518 11.359 18.1031H15.1348C14.821 18.5199 14.6515 19.0275 14.652 19.5492C14.652 20.8758 15.7301 21.9539 17.0566 21.9539C18.3832 21.9539 19.4613 20.8758 19.4613 19.5492C19.4613 19.0266 19.2879 18.518 18.9785 18.1031H21.634C22.0887 18.1031 22.4613 17.7328 22.4613 17.2758C22.46 17.0566 22.372 16.8468 22.2165 16.6923C22.0611 16.5377 21.8508 16.4509 21.6316 16.4508ZM7.16602 5.92969L20.6613 5.97422L19.3395 13.3758L8.73867 13.3945L7.16602 5.92969ZM9.43711 20.2898C9.0293 20.2898 8.69648 19.957 8.69648 19.5492C8.69648 19.1414 9.0293 18.8086 9.43711 18.8086C9.84492 18.8086 10.1777 19.1414 10.1777 19.5492C10.1777 19.7456 10.0997 19.934 9.96081 20.0729C9.82192 20.2118 9.63353 20.2898 9.43711 20.2898ZM17.0566 20.2898C16.6488 20.2898 16.316 19.957 16.316 19.5492C16.316 19.1414 16.6488 18.8086 17.0566 18.8086C17.4645 18.8086 17.7973 19.1414 17.7973 19.5492C17.7973 19.7456 17.7192 19.934 17.5803 20.0729C17.4414 20.2118 17.2531 20.2898 17.0566 20.2898Z" fill="#39C874"/>
</svg>