<svg width="18" height="18" viewBox="0 0 18 18" xmlns="http://www.w3.org/2000/svg">
<path d="M17.3571 1.92578H0.642857C0.287277 1.92578 0 2.21306 0 2.56864V15.4258C0 15.7814 0.287277 16.0686 0.642857 16.0686H17.3571C17.7127 16.0686 18 15.7814 18 15.4258V2.56864C18 2.21306 17.7127 1.92578 17.3571 1.92578ZM16.5536 4.15167V14.6222H1.44643V4.15167L0.891964 3.71975L1.68147 2.70525L2.54129 3.37422H15.4607L16.3205 2.70525L17.11 3.71975L16.5536 4.15167ZM15.4607 3.37221L9 8.39453L2.53929 3.37221L1.67946 2.70324L0.889955 3.71775L1.44442 4.14967L8.30692 9.48538C8.50428 9.6387 8.74707 9.72193 8.99699 9.72193C9.2469 9.72193 9.4897 9.6387 9.68705 9.48538L16.5536 4.15167L17.108 3.71975L16.3185 2.70525L15.4607 3.37221Z"/>
</svg>