<svg width="198" height="182" viewBox="0 0 198 182" fill="none" xmlns="http://www.w3.org/2000/svg">
<circle opacity="0.2" cx="90" cy="90" r="90" fill="#39C874"/>
<path d="M164.667 42H71.3333C63.9333 42 58 47.9333 58 55.3333V148.667C58 152.203 59.4048 155.594 61.9052 158.095C64.4057 160.595 67.7971 162 71.3333 162H164.667C172.067 162 178 156.067 178 148.667V55.3333C178 51.7971 176.595 48.4057 174.095 45.9052C171.594 43.4048 168.203 42 164.667 42ZM164.667 148.667H71.3333V55.3333H164.667V148.667ZM151.333 123.467C151.333 130 146 135.333 139.467 135.333C132.933 135.333 127.667 130 127.667 123.467C127.667 116.933 132.933 111.667 139.467 111.667C146 111.667 151.333 116.933 151.333 123.467ZM94.6667 135.533L84.6667 125.533L141.533 68.6667L151.533 78.6667L94.6667 135.533ZM85 80.8667C85 74.2667 90.2667 69 96.8667 69C103.4 69 108.667 74.2667 108.667 80.8667C108.667 87.4 103.4 92.6667 96.8667 92.6667C90.2667 92.6667 85 87.4 85 80.8667Z" fill="black"/>
</svg>