<svg width="188" height="180" viewBox="0 0 188 180" fill="none" xmlns="http://www.w3.org/2000/svg">
<circle opacity="0.2" cx="90" cy="90" r="90" fill="#39C874"/>
<path d="M113 54.1875L63 74.1875V140.75H75.5V103.25C75.5 99.8125 76.725 96.8688 79.175 94.4188C81.6208 91.9729 84.5625 90.75 88 90.75H138C141.438 90.75 144.381 91.9729 146.831 94.4188C149.277 96.8688 150.5 99.8125 150.5 103.25V140.75H163V74.1875L113 54.1875ZM88 153.25H63C59.5625 153.25 56.6208 152.027 54.175 149.581C51.725 147.131 50.5 144.188 50.5 140.75V74.1875C50.5 71.5833 51.2042 69.2396 52.6125 67.1562C54.0167 65.0729 55.9167 63.5625 58.3125 62.625L108.312 42.625C109.771 42 111.333 41.6875 113 41.6875C114.667 41.6875 116.229 42 117.688 42.625L167.688 62.625C170.083 63.5625 171.985 65.0729 173.394 67.1562C174.798 69.2396 175.5 71.5833 175.5 74.1875V140.75C175.5 144.188 174.277 147.131 171.831 149.581C169.381 152.027 166.438 153.25 163 153.25H138V103.25H88V153.25ZM94.25 153.25V140.75H106.75V153.25H94.25ZM106.75 134.5V122H119.25V134.5H106.75ZM119.25 153.25V140.75H131.75V153.25H119.25Z" fill="black"/>
</svg>