<svg width="188" height="180" viewBox="0 0 188 180" fill="none" xmlns="http://www.w3.org/2000/svg">
<circle opacity="0.2" cx="90" cy="90" r="90" fill="#39C874"/>
<path d="M174.944 56.8586V35.4133C174.944 32.4501 172.55 30.0562 169.587 30.0562H56.4177C53.4545 30.0562 51.0605 32.4501 51.0605 35.4133V56.8586C48.2648 57.026 46.0382 59.353 46.0382 62.199V84.247C46.0275 88.2991 46.8479 92.3103 48.4489 96.0327C49.1688 97.7403 50.056 99.3475 51.0605 100.871V158.628C51.0605 161.574 53.4545 163.985 56.4177 163.985H169.587C172.55 163.985 174.944 161.591 174.944 158.628V100.871C175.965 99.3436 176.839 97.7237 177.556 96.0327C179.146 92.2995 179.967 88.3318 179.967 84.247V62.199C179.967 59.353 177.74 57.026 174.944 56.8586ZM63.1141 42.1097H162.891V56.8419H63.1141V42.1097ZM123.717 151.948H102.288V134.52H123.717V151.948ZM162.891 151.948H134.431V129.163C134.431 126.2 132.037 123.806 129.074 123.806H96.931C93.9679 123.806 91.5739 126.2 91.5739 129.163V151.948H63.1141V111.401C63.5996 111.635 64.1018 111.87 64.6208 112.071C68.354 113.644 72.3217 114.431 76.4065 114.431C80.4913 114.431 84.4422 113.644 88.1922 112.071C90.5025 111.1 92.6788 109.861 94.671 108.371C94.7045 108.354 94.738 108.354 94.7715 108.371C96.7698 109.867 98.946 111.11 101.25 112.071C104.983 113.644 108.951 114.431 113.036 114.431C117.121 114.431 121.072 113.644 124.822 112.071C127.132 111.1 129.308 109.861 131.3 108.371C131.334 108.354 131.367 108.354 131.401 108.371C133.399 109.867 135.575 111.11 137.88 112.071C141.613 113.644 145.581 114.431 149.665 114.431C153.75 114.431 157.701 113.644 161.451 112.071C161.953 111.853 162.456 111.635 162.958 111.401V151.948H162.891ZM167.913 84.247C167.913 94.2582 159.71 102.378 149.615 102.378C142.785 102.378 136.825 98.6778 133.678 93.1867C133.192 92.3497 132.322 91.8307 131.351 91.8307H131.25C130.296 91.8307 129.409 92.3497 128.923 93.1867C127.317 95.9878 124.998 98.3137 122.202 99.928C119.405 101.542 116.231 102.387 113.002 102.378C106.189 102.378 100.246 98.6945 97.0985 93.2202C96.5962 92.3664 95.6922 91.8307 94.7045 91.8307C93.7168 91.8307 92.796 92.3664 92.3105 93.2202C90.695 96.0106 88.3729 98.3261 85.578 99.9337C82.7831 101.541 79.614 102.384 76.3898 102.378C66.2949 102.378 58.0918 94.2582 58.0918 84.247V68.9791C58.0918 68.9289 58.1252 68.8954 58.1755 68.8954H167.829C167.88 68.8954 167.913 68.9289 167.913 68.9791V84.247Z" fill="black" fill-opacity="0.85"/>
</svg>