<svg width="18" height="18" viewBox="0 0 18 18" fill="none" xmlns="http://www.w3.org/2000/svg">
<g clip-path="url(#clip0_1686_10183)">
<path d="M1.125 1.9248H0.160714C0.0723214 1.9248 0 1.99713 0 2.08552V15.9069C0 15.9953 0.0723214 16.0677 0.160714 16.0677H1.125C1.21339 16.0677 1.28571 15.9953 1.28571 15.9069V2.08552C1.28571 1.99713 1.21339 1.9248 1.125 1.9248ZM17.8594 1.9248H16.8951C16.8067 1.9248 16.7344 1.99713 16.7344 2.08552V15.9069C16.7344 15.9953 16.8067 16.0677 16.8951 16.0677H17.8594C17.9478 16.0677 18.0201 15.9953 18.0201 15.9069V2.08552C18.0201 1.99713 17.9478 1.9248 17.8594 1.9248ZM2.73214 13.4962H4.98214C5.07054 13.4962 5.14286 13.4239 5.14286 13.3355V2.08552C5.14286 1.99713 5.07054 1.9248 4.98214 1.9248H2.73214C2.64375 1.9248 2.57143 1.99713 2.57143 2.08552V13.3355C2.57143 13.4239 2.64375 13.4962 2.73214 13.4962ZM9.1808 13.4962H10.1451C10.2335 13.4962 10.3058 13.4239 10.3058 13.3355V2.08552C10.3058 1.99713 10.2335 1.9248 10.1451 1.9248H9.1808C9.09241 1.9248 9.02009 1.99713 9.02009 2.08552V13.3355C9.02009 13.4239 9.09241 13.4962 9.1808 13.4962ZM11.7121 13.4962H15.2879C15.3763 13.4962 15.4487 13.4239 15.4487 13.3355V2.08552C15.4487 1.99713 15.3763 1.9248 15.2879 1.9248H11.7121C11.6237 1.9248 11.5513 1.99713 11.5513 2.08552V13.3355C11.5513 13.4239 11.6237 13.4962 11.7121 13.4962ZM6.58929 13.4962H7.55357C7.64196 13.4962 7.71429 13.4239 7.71429 13.3355V2.08552C7.71429 1.99713 7.64196 1.9248 7.55357 1.9248H6.58929C6.50089 1.9248 6.42857 1.99713 6.42857 2.08552V13.3355C6.42857 13.4239 6.50089 13.4962 6.58929 13.4962ZM5.00223 14.7819H2.75223C2.66384 14.7819 2.59152 14.8543 2.59152 14.9427V15.9069C2.59152 15.9953 2.66384 16.0677 2.75223 16.0677H5.00223C5.09063 16.0677 5.16295 15.9953 5.16295 15.9069V14.9427C5.16295 14.8543 5.09063 14.7819 5.00223 14.7819ZM10.1652 14.7819H9.20089C9.1125 14.7819 9.04018 14.8543 9.04018 14.9427V15.9069C9.04018 15.9953 9.1125 16.0677 9.20089 16.0677H10.1652C10.2536 16.0677 10.3259 15.9953 10.3259 15.9069V14.9427C10.3259 14.8543 10.2536 14.7819 10.1652 14.7819ZM15.308 14.7819H11.7321C11.6438 14.7819 11.5714 14.8543 11.5714 14.9427V15.9069C11.5714 15.9953 11.6438 16.0677 11.7321 16.0677H15.308C15.3964 16.0677 15.4688 15.9953 15.4688 15.9069V14.9427C15.4688 14.8543 15.3964 14.7819 15.308 14.7819ZM7.57366 14.7819H6.60938C6.52098 14.7819 6.44866 14.8543 6.44866 14.9427V15.9069C6.44866 15.9953 6.52098 16.0677 6.60938 16.0677H7.57366C7.66205 16.0677 7.73438 15.9953 7.73438 15.9069V14.9427C7.73438 14.8543 7.66205 14.7819 7.57366 14.7819Z" fill="black" fill-opacity="0.85"/>
</g>
<defs>
<clipPath id="clip0_1686_10183">
<rect width="18" height="18" fill="white"/>
</clipPath>
</defs>
</svg>